<mxfile host="65bd71144e">
    <diagram id="ItdQsfIKQHSvG9DCi5Ga" name="第 1 页">
        <mxGraphModel dx="1897" dy="1133" grid="1" gridSize="10" guides="1" tooltips="1" connect="1" arrows="1" fold="1" page="1" pageScale="1" pageWidth="3300" pageHeight="4681" math="0" shadow="0">
            <root>
                <mxCell id="0"/>
                <mxCell id="1" parent="0"/>
                <mxCell id="101" value="" style="rounded=0;whiteSpace=wrap;html=1;fillColor=#FFFF99;" parent="1" vertex="1">
                    <mxGeometry x="670" y="370" width="910" height="510" as="geometry"/>
                </mxCell>
                <mxCell id="13" value="" style="shape=umlLifeline;participant=umlActor;perimeter=lifelinePerimeter;whiteSpace=wrap;html=1;container=1;collapsible=0;recursiveResize=0;verticalAlign=top;spacingTop=36;outlineConnect=0;fillColor=#008a00;fontColor=#ffffff;strokeColor=#005700;" parent="1" vertex="1">
                    <mxGeometry x="490" y="30" width="20" height="1720" as="geometry"/>
                </mxCell>
                <mxCell id="15" value="设备" style="shape=umlLifeline;perimeter=lifelinePerimeter;whiteSpace=wrap;html=1;container=1;collapsible=0;recursiveResize=0;outlineConnect=0;fillColor=#e1d5e7;strokeColor=#9673a6;" parent="1" vertex="1">
                    <mxGeometry x="900" y="30" width="100" height="1590" as="geometry"/>
                </mxCell>
                <mxCell id="16" value="平台" style="shape=umlLifeline;perimeter=lifelinePerimeter;whiteSpace=wrap;html=1;container=1;collapsible=0;recursiveResize=0;outlineConnect=0;fillColor=#f8cecc;strokeColor=#b85450;" parent="1" vertex="1">
                    <mxGeometry x="1340" y="30" width="100" height="1360" as="geometry"/>
                </mxCell>
                <mxCell id="29" style="edgeStyle=none;html=1;" parent="16" source="18" target="16" edge="1">
                    <mxGeometry relative="1" as="geometry"/>
                </mxCell>
                <mxCell id="18" value="" style="html=1;points=[];perimeter=orthogonalPerimeter;" parent="16" vertex="1">
                    <mxGeometry x="45" y="70" width="10" height="110" as="geometry"/>
                </mxCell>
                <mxCell id="22" value="" style="html=1;points=[];perimeter=orthogonalPerimeter;" parent="16" vertex="1">
                    <mxGeometry x="55" y="80" width="10" height="20" as="geometry"/>
                </mxCell>
                <mxCell id="23" value="判断机器人已存在" style="edgeStyle=orthogonalEdgeStyle;html=1;align=left;spacingLeft=2;endArrow=block;rounded=0;entryX=1;entryY=0;" parent="16" target="22" edge="1">
                    <mxGeometry relative="1" as="geometry">
                        <mxPoint x="55.069999999999936" y="70" as="sourcePoint"/>
                        <Array as="points">
                            <mxPoint x="85.06999999999994" y="70"/>
                        </Array>
                    </mxGeometry>
                </mxCell>
                <mxCell id="24" value="" style="html=1;points=[];perimeter=orthogonalPerimeter;" parent="16" vertex="1">
                    <mxGeometry x="44.999999999999936" y="230" width="10" height="80" as="geometry"/>
                </mxCell>
                <mxCell id="35" value="创建机器人" style="edgeStyle=orthogonalEdgeStyle;html=1;align=left;spacingLeft=2;endArrow=block;rounded=0;" parent="16" edge="1">
                    <mxGeometry relative="1" as="geometry">
                        <mxPoint x="55" y="110" as="sourcePoint"/>
                        <Array as="points">
                            <mxPoint x="55" y="110"/>
                            <mxPoint x="85" y="110"/>
                            <mxPoint x="85" y="140"/>
                            <mxPoint x="55" y="140"/>
                        </Array>
                        <mxPoint x="55" y="140" as="targetPoint"/>
                    </mxGeometry>
                </mxCell>
                <mxCell id="37" value="修改机器人信息" style="edgeStyle=orthogonalEdgeStyle;html=1;align=left;spacingLeft=2;endArrow=block;rounded=0;" parent="16" edge="1">
                    <mxGeometry relative="1" as="geometry">
                        <mxPoint x="55" y="254.9800000000001" as="sourcePoint"/>
                        <Array as="points">
                            <mxPoint x="55" y="254.98"/>
                            <mxPoint x="85" y="254.98"/>
                            <mxPoint x="85" y="284.98"/>
                            <mxPoint x="55" y="284.98"/>
                        </Array>
                        <mxPoint x="55" y="284.98000000000013" as="targetPoint"/>
                    </mxGeometry>
                </mxCell>
                <mxCell id="39" value="生成SD" style="edgeStyle=orthogonalEdgeStyle;html=1;align=left;spacingLeft=2;endArrow=block;rounded=0;" parent="16" edge="1">
                    <mxGeometry relative="1" as="geometry">
                        <mxPoint x="55" y="149.9700000000001" as="sourcePoint"/>
                        <Array as="points">
                            <mxPoint x="55" y="149.97"/>
                            <mxPoint x="85" y="149.97"/>
                            <mxPoint x="85" y="179.97"/>
                            <mxPoint x="55" y="179.97"/>
                        </Array>
                        <mxPoint x="55" y="179.9700000000001" as="targetPoint"/>
                    </mxGeometry>
                </mxCell>
                <mxCell id="40" value="" style="html=1;points=[];perimeter=orthogonalPerimeter;" parent="16" vertex="1">
                    <mxGeometry x="45" y="500" width="10" height="80" as="geometry"/>
                </mxCell>
                <mxCell id="44" value="获取机器人token" style="edgeStyle=orthogonalEdgeStyle;html=1;align=left;spacingLeft=2;endArrow=block;rounded=0;" parent="16" edge="1">
                    <mxGeometry relative="1" as="geometry">
                        <mxPoint x="55" y="524.98" as="sourcePoint"/>
                        <Array as="points">
                            <mxPoint x="55" y="524.98"/>
                            <mxPoint x="85" y="524.98"/>
                            <mxPoint x="85" y="554.98"/>
                            <mxPoint x="55" y="554.98"/>
                        </Array>
                        <mxPoint x="55" y="554.98" as="targetPoint"/>
                    </mxGeometry>
                </mxCell>
                <mxCell id="45" value="" style="html=1;points=[];perimeter=orthogonalPerimeter;" parent="16" vertex="1">
                    <mxGeometry x="45" y="370" width="10" height="80" as="geometry"/>
                </mxCell>
                <mxCell id="48" value="获取服务器参数" style="edgeStyle=orthogonalEdgeStyle;html=1;align=left;spacingLeft=2;endArrow=block;rounded=0;" parent="16" edge="1">
                    <mxGeometry relative="1" as="geometry">
                        <mxPoint x="55" y="394.98" as="sourcePoint"/>
                        <Array as="points">
                            <mxPoint x="55" y="394.98"/>
                            <mxPoint x="85" y="394.98"/>
                            <mxPoint x="85" y="424.98"/>
                            <mxPoint x="55" y="424.98"/>
                        </Array>
                        <mxPoint x="55" y="424.98" as="targetPoint"/>
                    </mxGeometry>
                </mxCell>
                <mxCell id="49" value="" style="html=1;points=[];perimeter=orthogonalPerimeter;" parent="16" vertex="1">
                    <mxGeometry x="45" y="760" width="10" height="80" as="geometry"/>
                </mxCell>
                <mxCell id="43" value="修改机器人状态及信息" style="edgeStyle=orthogonalEdgeStyle;html=1;align=left;spacingLeft=2;endArrow=block;rounded=0;" parent="16" edge="1">
                    <mxGeometry relative="1" as="geometry">
                        <mxPoint x="55" y="784.98" as="sourcePoint"/>
                        <Array as="points">
                            <mxPoint x="55" y="784.98"/>
                            <mxPoint x="85" y="784.98"/>
                            <mxPoint x="85" y="814.98"/>
                            <mxPoint x="55" y="814.98"/>
                        </Array>
                        <mxPoint x="55" y="814.98" as="targetPoint"/>
                    </mxGeometry>
                </mxCell>
                <mxCell id="67" value="" style="html=1;points=[];perimeter=orthogonalPerimeter;" parent="16" vertex="1">
                    <mxGeometry x="45" y="640" width="10" height="80" as="geometry"/>
                </mxCell>
                <mxCell id="70" value="" style="html=1;points=[];perimeter=orthogonalPerimeter;" parent="16" vertex="1">
                    <mxGeometry x="45" y="870" width="10" height="80" as="geometry"/>
                </mxCell>
                <mxCell id="73" value="" style="html=1;points=[];perimeter=orthogonalPerimeter;" parent="16" vertex="1">
                    <mxGeometry x="45" y="1010" width="10" height="80" as="geometry"/>
                </mxCell>
                <mxCell id="65" value="获取楼层地图" style="edgeStyle=orthogonalEdgeStyle;html=1;align=left;spacingLeft=2;endArrow=block;rounded=0;" parent="16" edge="1">
                    <mxGeometry relative="1" as="geometry">
                        <mxPoint x="55" y="1034.98" as="sourcePoint"/>
                        <Array as="points">
                            <mxPoint x="55" y="1034.98"/>
                            <mxPoint x="85" y="1034.98"/>
                            <mxPoint x="85" y="1064.98"/>
                            <mxPoint x="55" y="1064.98"/>
                        </Array>
                        <mxPoint x="55" y="1064.98" as="targetPoint"/>
                    </mxGeometry>
                </mxCell>
                <mxCell id="102" value="" style="html=1;points=[];perimeter=orthogonalPerimeter;fillColor=#FFFFFF;" parent="16" vertex="1">
                    <mxGeometry x="45" y="1150" width="10" height="80" as="geometry"/>
                </mxCell>
                <mxCell id="19" value="创建机器人" style="html=1;verticalAlign=bottom;endArrow=block;entryX=0;entryY=0;" parent="1" target="18" edge="1">
                    <mxGeometry relative="1" as="geometry">
                        <mxPoint x="499.9248387096773" y="100.00000000000011" as="sourcePoint"/>
                    </mxGeometry>
                </mxCell>
                <mxCell id="105" value="Text" style="edgeLabel;html=1;align=center;verticalAlign=middle;resizable=0;points=[];" parent="19" vertex="1" connectable="0">
                    <mxGeometry x="0.2407" y="2" relative="1" as="geometry">
                        <mxPoint as="offset"/>
                    </mxGeometry>
                </mxCell>
                <mxCell id="20" value="返回机器人" style="html=1;verticalAlign=bottom;endArrow=open;dashed=1;endSize=8;exitX=0;exitY=0.95;" parent="1" source="18" target="13" edge="1">
                    <mxGeometry relative="1" as="geometry">
                        <mxPoint x="499.9248387096773" y="176" as="targetPoint"/>
                    </mxGeometry>
                </mxCell>
                <mxCell id="25" value="添加机器人到园区" style="html=1;verticalAlign=bottom;endArrow=block;entryX=0;entryY=0;" parent="1" source="13" target="24" edge="1">
                    <mxGeometry relative="1" as="geometry">
                        <mxPoint x="1320.07" y="240" as="sourcePoint"/>
                    </mxGeometry>
                </mxCell>
                <mxCell id="26" value="mqtt音量调节" style="html=1;verticalAlign=bottom;endArrow=open;dashed=1;endSize=8;exitX=0;exitY=0.95;" parent="1" source="24" edge="1">
                    <mxGeometry relative="1" as="geometry">
                        <mxPoint x="950" y="336" as="targetPoint"/>
                    </mxGeometry>
                </mxCell>
                <mxCell id="41" value="设备认证" style="html=1;verticalAlign=bottom;endArrow=block;entryX=0;entryY=0;" parent="1" target="40" edge="1">
                    <mxGeometry relative="1" as="geometry">
                        <mxPoint x="949.5" y="530" as="sourcePoint"/>
                    </mxGeometry>
                </mxCell>
                <mxCell id="42" value="返回token" style="html=1;verticalAlign=bottom;endArrow=open;dashed=1;endSize=8;exitX=0;exitY=0.95;" parent="1" source="40" edge="1">
                    <mxGeometry relative="1" as="geometry">
                        <mxPoint x="949.5" y="606" as="targetPoint"/>
                    </mxGeometry>
                </mxCell>
                <mxCell id="46" value="服务器连接参数获取" style="html=1;verticalAlign=bottom;endArrow=block;entryX=0;entryY=0;" parent="1" target="45" edge="1">
                    <mxGeometry relative="1" as="geometry">
                        <mxPoint x="949.8548387096776" y="400" as="sourcePoint"/>
                    </mxGeometry>
                </mxCell>
                <mxCell id="47" value="服务器参数返回" style="html=1;verticalAlign=bottom;endArrow=open;dashed=1;endSize=8;exitX=0;exitY=0.95;" parent="1" source="45" edge="1">
                    <mxGeometry relative="1" as="geometry">
                        <mxPoint x="949.8548387096776" y="476" as="targetPoint"/>
                    </mxGeometry>
                </mxCell>
                <mxCell id="50" value="mqtt运行状态上报（设备状态，设备主动下线）" style="html=1;verticalAlign=bottom;endArrow=block;entryX=0;entryY=0;" parent="1" target="49" edge="1">
                    <mxGeometry relative="1" as="geometry">
                        <mxPoint x="949.8548387096776" y="790" as="sourcePoint"/>
                    </mxGeometry>
                </mxCell>
                <mxCell id="68" value="获取设备信息" style="html=1;verticalAlign=bottom;endArrow=block;entryX=0;entryY=0;" parent="1" target="67" edge="1">
                    <mxGeometry relative="1" as="geometry">
                        <mxPoint x="949.5" y="670" as="sourcePoint"/>
                    </mxGeometry>
                </mxCell>
                <mxCell id="69" value="返回设备信息" style="html=1;verticalAlign=bottom;endArrow=open;dashed=1;endSize=8;exitX=0;exitY=0.95;" parent="1" source="67" edge="1">
                    <mxGeometry relative="1" as="geometry">
                        <mxPoint x="949.5" y="746" as="targetPoint"/>
                    </mxGeometry>
                </mxCell>
                <mxCell id="71" value="获取机器人列表" style="html=1;verticalAlign=bottom;endArrow=block;entryX=0;entryY=0;" parent="1" target="70" edge="1">
                    <mxGeometry relative="1" as="geometry">
                        <mxPoint x="499.5" y="900" as="sourcePoint"/>
                    </mxGeometry>
                </mxCell>
                <mxCell id="72" value="返回机器人列表" style="html=1;verticalAlign=bottom;endArrow=open;dashed=1;endSize=8;exitX=0;exitY=0.95;" parent="1" source="70" edge="1">
                    <mxGeometry relative="1" as="geometry">
                        <mxPoint x="499.5" y="976" as="targetPoint"/>
                    </mxGeometry>
                </mxCell>
                <mxCell id="74" value="获取机器人详情" style="html=1;verticalAlign=bottom;endArrow=block;entryX=0;entryY=0;" parent="1" target="73" edge="1">
                    <mxGeometry relative="1" as="geometry">
                        <mxPoint x="499.5" y="1040" as="sourcePoint"/>
                    </mxGeometry>
                </mxCell>
                <mxCell id="75" value="返回机器人详情" style="html=1;verticalAlign=bottom;endArrow=open;dashed=1;endSize=8;exitX=0;exitY=0.95;" parent="1" source="73" edge="1">
                    <mxGeometry relative="1" as="geometry">
                        <mxPoint x="499.5" y="1116" as="targetPoint"/>
                    </mxGeometry>
                </mxCell>
                <mxCell id="93" value="机器人" style="swimlane;" parent="1" vertex="1" collapsed="1">
                    <mxGeometry x="170" y="1860" width="70" height="23" as="geometry">
                        <mxRectangle x="170" y="1860" width="740" height="800" as="alternateBounds"/>
                    </mxGeometry>
                </mxCell>
                <mxCell id="95" value="&lt;span&gt;设备状态&lt;br&gt;&lt;/span&gt;设备行为&lt;br&gt;设备动作&lt;br&gt;当前楼层&lt;br&gt;最近点位&lt;br&gt;是否定位&lt;br&gt;&lt;span&gt;定位点位&lt;/span&gt;&lt;br&gt;&lt;span&gt;电池电量&lt;br&gt;&lt;/span&gt;信号强度&lt;br&gt;急停是否被按下&lt;br&gt;设备上报音量&lt;br&gt;水箱&lt;br&gt;&lt;span&gt;-清水量&lt;br&gt;-污水量&lt;br&gt;刷盘&lt;br&gt;软件版本&lt;br&gt;&lt;/span&gt;" style="whiteSpace=wrap;html=1;" parent="93" vertex="1">
                    <mxGeometry x="360" y="40" width="140" height="250" as="geometry"/>
                </mxCell>
                <mxCell id="94" value="机器人id&lt;br&gt;系列&lt;br&gt;名称&lt;br&gt;mac地址&lt;br&gt;sn码&lt;br&gt;公司id&lt;br&gt;操作人id&lt;br&gt;绑定楼栋id&lt;br&gt;音量&lt;br&gt;创建时间&lt;br&gt;迁移时间&lt;br&gt;" style="whiteSpace=wrap;html=1;" parent="93" vertex="1">
                    <mxGeometry x="180" y="60" width="120" height="190" as="geometry"/>
                </mxCell>
                <mxCell id="100" value="返回机器人" style="html=1;verticalAlign=bottom;endArrow=open;dashed=1;endSize=8;exitX=0;exitY=0.95;" parent="1" target="13" edge="1">
                    <mxGeometry relative="1" as="geometry">
                        <mxPoint x="950.0048387096775" y="300" as="targetPoint"/>
                        <mxPoint x="1385.15" y="300" as="sourcePoint"/>
                    </mxGeometry>
                </mxCell>
                <mxCell id="103" value="暂停机器人" style="html=1;verticalAlign=bottom;endArrow=block;entryX=0;entryY=0;" parent="1" source="13" target="102" edge="1">
                    <mxGeometry relative="1" as="geometry">
                        <mxPoint x="1315" y="1180" as="sourcePoint"/>
                    </mxGeometry>
                </mxCell>
                <mxCell id="104" value="mqtt暂停机器人" style="html=1;verticalAlign=bottom;endArrow=open;dashed=1;endSize=8;exitX=0;exitY=0.95;" parent="1" source="102" target="15" edge="1">
                    <mxGeometry relative="1" as="geometry">
                        <mxPoint x="1315" y="1256" as="targetPoint"/>
                    </mxGeometry>
                </mxCell>
            </root>
        </mxGraphModel>
    </diagram>
</mxfile>